<mxfile host="app.diagrams.net" modified="2023-05-24T14:55:12.778Z" agent="Mozilla/5.0 (Windows NT 10.0; Win64; x64) AppleWebKit/537.36 (KHTML, like Gecko) Chrome/113.0.0.0 Safari/537.36" etag="wNYA7UEacakudxt8EAK5" version="21.3.3" type="device">
  <diagram name="Страница 1" id="ssbt3cCxLgwBZl8ReIaV">
    <mxGraphModel dx="2345" dy="951" grid="1" gridSize="10" guides="1" tooltips="1" connect="1" arrows="1" fold="1" page="1" pageScale="1" pageWidth="2339" pageHeight="3300" math="0" shadow="0">
      <root>
        <mxCell id="0" />
        <mxCell id="1" parent="0" />
        <mxCell id="pJw5Jc8nmdxxSjREYrTg-7" style="edgeStyle=orthogonalEdgeStyle;rounded=0;orthogonalLoop=1;jettySize=auto;html=1;entryX=0.5;entryY=0;entryDx=0;entryDy=0;" parent="1" source="pJw5Jc8nmdxxSjREYrTg-4" target="pJw5Jc8nmdxxSjREYrTg-6" edge="1">
          <mxGeometry relative="1" as="geometry" />
        </mxCell>
        <mxCell id="pJw5Jc8nmdxxSjREYrTg-4" value="Начало алгоритма подключения клиента к серверу" style="rounded=1;whiteSpace=wrap;html=1;arcSize=50;" parent="1" vertex="1">
          <mxGeometry x="80" width="120" height="60" as="geometry" />
        </mxCell>
        <mxCell id="pJw5Jc8nmdxxSjREYrTg-5" value="Конец алгоритма подключения клиента к серверу" style="rounded=1;whiteSpace=wrap;html=1;arcSize=50;" parent="1" vertex="1">
          <mxGeometry x="300" y="650" width="120" height="60" as="geometry" />
        </mxCell>
        <mxCell id="pJw5Jc8nmdxxSjREYrTg-10" style="edgeStyle=orthogonalEdgeStyle;rounded=0;orthogonalLoop=1;jettySize=auto;html=1;entryX=0.5;entryY=0;entryDx=0;entryDy=0;" parent="1" source="pJw5Jc8nmdxxSjREYrTg-6" target="pJw5Jc8nmdxxSjREYrTg-9" edge="1">
          <mxGeometry relative="1" as="geometry" />
        </mxCell>
        <mxCell id="pJw5Jc8nmdxxSjREYrTg-6" value="&amp;nbsp; Ввод IP адреса и порта сервера" style="shape=parallelogram;perimeter=parallelogramPerimeter;whiteSpace=wrap;html=1;fixedSize=1;" parent="1" vertex="1">
          <mxGeometry x="80" y="80" width="120" height="60" as="geometry" />
        </mxCell>
        <mxCell id="pJw5Jc8nmdxxSjREYrTg-13" style="edgeStyle=orthogonalEdgeStyle;rounded=0;orthogonalLoop=1;jettySize=auto;html=1;entryX=0.5;entryY=0;entryDx=0;entryDy=0;" parent="1" source="pJw5Jc8nmdxxSjREYrTg-8" target="pJw5Jc8nmdxxSjREYrTg-12" edge="1">
          <mxGeometry relative="1" as="geometry">
            <Array as="points">
              <mxPoint x="60" y="275" />
            </Array>
          </mxGeometry>
        </mxCell>
        <mxCell id="pJw5Jc8nmdxxSjREYrTg-16" style="edgeStyle=orthogonalEdgeStyle;rounded=0;orthogonalLoop=1;jettySize=auto;html=1;entryX=0.5;entryY=0;entryDx=0;entryDy=0;" parent="1" source="pJw5Jc8nmdxxSjREYrTg-8" target="pJw5Jc8nmdxxSjREYrTg-15" edge="1">
          <mxGeometry relative="1" as="geometry">
            <Array as="points">
              <mxPoint x="220" y="275" />
            </Array>
          </mxGeometry>
        </mxCell>
        <mxCell id="pJw5Jc8nmdxxSjREYrTg-8" value="Файлы с &lt;br&gt;картой &lt;br&gt;найдены" style="rhombus;whiteSpace=wrap;html=1;" parent="1" vertex="1">
          <mxGeometry x="80" y="240" width="120" height="70" as="geometry" />
        </mxCell>
        <mxCell id="pJw5Jc8nmdxxSjREYrTg-11" style="edgeStyle=orthogonalEdgeStyle;rounded=0;orthogonalLoop=1;jettySize=auto;html=1;entryX=0.5;entryY=0;entryDx=0;entryDy=0;" parent="1" source="pJw5Jc8nmdxxSjREYrTg-9" target="pJw5Jc8nmdxxSjREYrTg-8" edge="1">
          <mxGeometry relative="1" as="geometry" />
        </mxCell>
        <mxCell id="pJw5Jc8nmdxxSjREYrTg-9" value="Приём имён файлов с картой" style="rounded=0;whiteSpace=wrap;html=1;" parent="1" vertex="1">
          <mxGeometry x="80" y="160" width="120" height="60" as="geometry" />
        </mxCell>
        <mxCell id="pJw5Jc8nmdxxSjREYrTg-17" style="edgeStyle=orthogonalEdgeStyle;rounded=0;orthogonalLoop=1;jettySize=auto;html=1;" parent="1" source="pJw5Jc8nmdxxSjREYrTg-12" edge="1">
          <mxGeometry relative="1" as="geometry">
            <mxPoint x="220" y="390" as="targetPoint" />
            <Array as="points">
              <mxPoint x="60" y="390" />
              <mxPoint x="220" y="390" />
            </Array>
          </mxGeometry>
        </mxCell>
        <mxCell id="pJw5Jc8nmdxxSjREYrTg-12" value="Скачивание файлов" style="rounded=0;whiteSpace=wrap;html=1;" parent="1" vertex="1">
          <mxGeometry y="320" width="120" height="60" as="geometry" />
        </mxCell>
        <mxCell id="pJw5Jc8nmdxxSjREYrTg-14" value="нет" style="text;html=1;align=center;verticalAlign=middle;resizable=0;points=[];autosize=1;strokeColor=none;fillColor=none;" parent="1" vertex="1">
          <mxGeometry x="50" y="250" width="40" height="30" as="geometry" />
        </mxCell>
        <mxCell id="pJw5Jc8nmdxxSjREYrTg-19" style="edgeStyle=orthogonalEdgeStyle;rounded=0;orthogonalLoop=1;jettySize=auto;html=1;entryX=0.5;entryY=0;entryDx=0;entryDy=0;" parent="1" source="pJw5Jc8nmdxxSjREYrTg-15" target="pJw5Jc8nmdxxSjREYrTg-18" edge="1">
          <mxGeometry relative="1" as="geometry" />
        </mxCell>
        <mxCell id="pJw5Jc8nmdxxSjREYrTg-15" value="Приём количества игроков в командах" style="rounded=0;whiteSpace=wrap;html=1;" parent="1" vertex="1">
          <mxGeometry x="160" y="410" width="120" height="60" as="geometry" />
        </mxCell>
        <mxCell id="pJw5Jc8nmdxxSjREYrTg-45" style="edgeStyle=orthogonalEdgeStyle;rounded=0;orthogonalLoop=1;jettySize=auto;html=1;entryX=0.5;entryY=0;entryDx=0;entryDy=0;" parent="1" source="pJw5Jc8nmdxxSjREYrTg-18" target="pJw5Jc8nmdxxSjREYrTg-44" edge="1">
          <mxGeometry relative="1" as="geometry" />
        </mxCell>
        <mxCell id="pJw5Jc8nmdxxSjREYrTg-18" value="&amp;nbsp; Ввод номера выбранной&lt;br&gt;команды" style="shape=parallelogram;perimeter=parallelogramPerimeter;whiteSpace=wrap;html=1;fixedSize=1;" parent="1" vertex="1">
          <mxGeometry x="160" y="490" width="120" height="60" as="geometry" />
        </mxCell>
        <mxCell id="pJw5Jc8nmdxxSjREYrTg-24" style="edgeStyle=orthogonalEdgeStyle;rounded=0;orthogonalLoop=1;jettySize=auto;html=1;entryX=0.5;entryY=0;entryDx=0;entryDy=0;" parent="1" source="pJw5Jc8nmdxxSjREYrTg-20" target="pJw5Jc8nmdxxSjREYrTg-23" edge="1">
          <mxGeometry relative="1" as="geometry">
            <Array as="points">
              <mxPoint x="600" y="90" />
            </Array>
          </mxGeometry>
        </mxCell>
        <mxCell id="pJw5Jc8nmdxxSjREYrTg-27" style="edgeStyle=orthogonalEdgeStyle;rounded=0;orthogonalLoop=1;jettySize=auto;html=1;entryX=0.5;entryY=0;entryDx=0;entryDy=0;" parent="1" source="pJw5Jc8nmdxxSjREYrTg-20" edge="1">
          <mxGeometry relative="1" as="geometry">
            <mxPoint x="440" y="230" as="targetPoint" />
            <Array as="points">
              <mxPoint x="440" y="90" />
              <mxPoint x="440" y="220" />
            </Array>
          </mxGeometry>
        </mxCell>
        <mxCell id="pJw5Jc8nmdxxSjREYrTg-20" value="&amp;nbsp;Произошло&lt;br&gt;автораспре-&lt;br&gt;деление" style="rhombus;whiteSpace=wrap;html=1;" parent="1" vertex="1">
          <mxGeometry x="460" y="50" width="120" height="80" as="geometry" />
        </mxCell>
        <mxCell id="pJw5Jc8nmdxxSjREYrTg-22" value="да" style="text;html=1;align=center;verticalAlign=middle;resizable=0;points=[];autosize=1;strokeColor=none;fillColor=none;" parent="1" vertex="1">
          <mxGeometry x="190" y="248" width="40" height="30" as="geometry" />
        </mxCell>
        <mxCell id="pJw5Jc8nmdxxSjREYrTg-28" style="edgeStyle=orthogonalEdgeStyle;rounded=0;orthogonalLoop=1;jettySize=auto;html=1;" parent="1" source="pJw5Jc8nmdxxSjREYrTg-23" edge="1">
          <mxGeometry relative="1" as="geometry">
            <mxPoint x="440" y="210" as="targetPoint" />
            <Array as="points">
              <mxPoint x="600" y="210" />
            </Array>
          </mxGeometry>
        </mxCell>
        <mxCell id="pJw5Jc8nmdxxSjREYrTg-23" value="Вывод &lt;br&gt;сообщения об автораспре-&lt;br&gt;делении" style="shape=parallelogram;perimeter=parallelogramPerimeter;whiteSpace=wrap;html=1;fixedSize=1;" parent="1" vertex="1">
          <mxGeometry x="540" y="140" width="120" height="60" as="geometry" />
        </mxCell>
        <mxCell id="pJw5Jc8nmdxxSjREYrTg-25" value="да" style="text;html=1;align=center;verticalAlign=middle;resizable=0;points=[];autosize=1;strokeColor=none;fillColor=none;" parent="1" vertex="1">
          <mxGeometry x="570" y="60" width="40" height="30" as="geometry" />
        </mxCell>
        <mxCell id="pJw5Jc8nmdxxSjREYrTg-37" style="edgeStyle=orthogonalEdgeStyle;rounded=0;orthogonalLoop=1;jettySize=auto;html=1;entryX=0.5;entryY=0;entryDx=0;entryDy=0;" parent="1" source="pJw5Jc8nmdxxSjREYrTg-29" target="pJw5Jc8nmdxxSjREYrTg-32" edge="1">
          <mxGeometry relative="1" as="geometry" />
        </mxCell>
        <mxCell id="pJw5Jc8nmdxxSjREYrTg-29" value="Ввод имени" style="shape=parallelogram;perimeter=parallelogramPerimeter;whiteSpace=wrap;html=1;fixedSize=1;" parent="1" vertex="1">
          <mxGeometry x="380" y="230" width="120" height="60" as="geometry" />
        </mxCell>
        <mxCell id="pJw5Jc8nmdxxSjREYrTg-30" style="edgeStyle=orthogonalEdgeStyle;rounded=0;orthogonalLoop=1;jettySize=auto;html=1;entryX=0.5;entryY=0;entryDx=0;entryDy=0;exitX=1;exitY=0.5;exitDx=0;exitDy=0;" parent="1" source="pJw5Jc8nmdxxSjREYrTg-32" target="pJw5Jc8nmdxxSjREYrTg-34" edge="1">
          <mxGeometry relative="1" as="geometry">
            <Array as="points">
              <mxPoint x="520" y="345" />
            </Array>
          </mxGeometry>
        </mxCell>
        <mxCell id="pJw5Jc8nmdxxSjREYrTg-31" style="edgeStyle=orthogonalEdgeStyle;rounded=0;orthogonalLoop=1;jettySize=auto;html=1;entryX=0.5;entryY=0;entryDx=0;entryDy=0;exitX=0;exitY=0.5;exitDx=0;exitDy=0;" parent="1" source="pJw5Jc8nmdxxSjREYrTg-32" edge="1">
          <mxGeometry relative="1" as="geometry">
            <mxPoint x="360" y="490" as="targetPoint" />
            <Array as="points">
              <mxPoint x="360" y="345" />
            </Array>
          </mxGeometry>
        </mxCell>
        <mxCell id="pJw5Jc8nmdxxSjREYrTg-32" value="Имя было &lt;br&gt;изменено" style="rhombus;whiteSpace=wrap;html=1;" parent="1" vertex="1">
          <mxGeometry x="380" y="310" width="120" height="70" as="geometry" />
        </mxCell>
        <mxCell id="pJw5Jc8nmdxxSjREYrTg-33" style="edgeStyle=orthogonalEdgeStyle;rounded=0;orthogonalLoop=1;jettySize=auto;html=1;" parent="1" source="pJw5Jc8nmdxxSjREYrTg-34" edge="1">
          <mxGeometry relative="1" as="geometry">
            <mxPoint x="360" y="470" as="targetPoint" />
            <Array as="points">
              <mxPoint x="520" y="470" />
            </Array>
          </mxGeometry>
        </mxCell>
        <mxCell id="pJw5Jc8nmdxxSjREYrTg-34" value="Вывод &lt;br&gt;нового имени" style="shape=parallelogram;perimeter=parallelogramPerimeter;whiteSpace=wrap;html=1;fixedSize=1;" parent="1" vertex="1">
          <mxGeometry x="460" y="400" width="120" height="60" as="geometry" />
        </mxCell>
        <mxCell id="pJw5Jc8nmdxxSjREYrTg-35" value="да" style="text;html=1;align=center;verticalAlign=middle;resizable=0;points=[];autosize=1;strokeColor=none;fillColor=none;" parent="1" vertex="1">
          <mxGeometry x="490" y="320" width="40" height="30" as="geometry" />
        </mxCell>
        <mxCell id="pJw5Jc8nmdxxSjREYrTg-38" value="нет" style="text;html=1;align=center;verticalAlign=middle;resizable=0;points=[];autosize=1;strokeColor=none;fillColor=none;" parent="1" vertex="1">
          <mxGeometry x="430" y="60" width="40" height="30" as="geometry" />
        </mxCell>
        <mxCell id="pJw5Jc8nmdxxSjREYrTg-39" value="нет" style="text;html=1;align=center;verticalAlign=middle;resizable=0;points=[];autosize=1;strokeColor=none;fillColor=none;" parent="1" vertex="1">
          <mxGeometry x="350" y="320" width="40" height="30" as="geometry" />
        </mxCell>
        <mxCell id="pJw5Jc8nmdxxSjREYrTg-42" style="edgeStyle=orthogonalEdgeStyle;rounded=0;orthogonalLoop=1;jettySize=auto;html=1;entryX=0.5;entryY=0;entryDx=0;entryDy=0;" parent="1" source="pJw5Jc8nmdxxSjREYrTg-40" target="pJw5Jc8nmdxxSjREYrTg-41" edge="1">
          <mxGeometry relative="1" as="geometry" />
        </mxCell>
        <mxCell id="pJw5Jc8nmdxxSjREYrTg-40" value="Обмен данными об используемых udp сокетами портах" style="rounded=0;whiteSpace=wrap;html=1;" parent="1" vertex="1">
          <mxGeometry x="300" y="490" width="120" height="60" as="geometry" />
        </mxCell>
        <mxCell id="pJw5Jc8nmdxxSjREYrTg-43" style="edgeStyle=orthogonalEdgeStyle;rounded=0;orthogonalLoop=1;jettySize=auto;html=1;entryX=0.5;entryY=0;entryDx=0;entryDy=0;" parent="1" source="pJw5Jc8nmdxxSjREYrTg-41" target="pJw5Jc8nmdxxSjREYrTg-5" edge="1">
          <mxGeometry relative="1" as="geometry" />
        </mxCell>
        <mxCell id="pJw5Jc8nmdxxSjREYrTg-41" value="Инициализация игрового мира" style="rounded=0;whiteSpace=wrap;html=1;" parent="1" vertex="1">
          <mxGeometry x="300" y="570" width="120" height="60" as="geometry" />
        </mxCell>
        <mxCell id="pJw5Jc8nmdxxSjREYrTg-44" value="1" style="ellipse;whiteSpace=wrap;html=1;aspect=fixed;" parent="1" vertex="1">
          <mxGeometry x="205" y="570" width="30" height="30" as="geometry" />
        </mxCell>
        <mxCell id="pJw5Jc8nmdxxSjREYrTg-47" style="edgeStyle=orthogonalEdgeStyle;rounded=0;orthogonalLoop=1;jettySize=auto;html=1;entryX=0.5;entryY=0;entryDx=0;entryDy=0;" parent="1" source="pJw5Jc8nmdxxSjREYrTg-46" target="pJw5Jc8nmdxxSjREYrTg-20" edge="1">
          <mxGeometry relative="1" as="geometry" />
        </mxCell>
        <mxCell id="pJw5Jc8nmdxxSjREYrTg-46" value="1" style="ellipse;whiteSpace=wrap;html=1;aspect=fixed;" parent="1" vertex="1">
          <mxGeometry x="505" width="30" height="30" as="geometry" />
        </mxCell>
      </root>
    </mxGraphModel>
  </diagram>
</mxfile>
